<svg width="18" height="19" viewBox="0 0 18 19" fill="none" xmlns="http://www.w3.org/2000/svg">
<g clip-path="url(#clip0_1_280)">
<g clip-path="url(#clip1_1_280)">
<g clip-path="url(#clip2_1_280)">
<mask id="mask0_1_280" style="mask-type:luminance" maskUnits="userSpaceOnUse" x="0" y="0" width="18" height="18">
<path d="M17.5 0.98999H0.5V17.99H17.5V0.98999Z" fill="white"/>
</mask>
<g mask="url(#mask0_1_280)">
<path d="M14.6668 9.48999V16.5733H3.33336V9.48999" stroke="#DA3738" stroke-width="2" stroke-linecap="round" stroke-linejoin="round"/>
<path d="M16.0833 5.94836H1.91663V9.48996H16.0833V5.94836Z" stroke="#DA3738" stroke-width="2" stroke-linecap="round" stroke-linejoin="round"/>
<path d="M9 16.5734V5.94836" stroke="#DA3738" stroke-width="2" stroke-linecap="round" stroke-linejoin="round"/>
<path d="M9 5.94832H12.1875C12.6572 5.94832 13.1076 5.76172 13.4397 5.42962C13.7718 5.09752 13.9583 4.64712 13.9583 4.17752C13.9583 3.70782 13.7718 3.25742 13.4397 2.92532C13.1076 2.59322 12.6572 2.40662 12.1875 2.40662C9.70833 2.40662 9 5.94832 9 5.94832Z" stroke="#DA3738" stroke-width="2" stroke-linecap="round" stroke-linejoin="round"/>
<path d="M8.99996 5.94832H5.81246C5.34281 5.94832 4.89239 5.76172 4.56029 5.42962C4.2282 5.09752 4.04163 4.64712 4.04163 4.17752C4.04163 3.70782 4.2282 3.25742 4.56029 2.92532C4.89239 2.59322 5.34281 2.40662 5.81246 2.40662C8.29163 2.40662 8.99996 5.94832 8.99996 5.94832Z" stroke="#DA3738" stroke-width="2" stroke-linecap="round" stroke-linejoin="round"/>
</g>
</g>
</g>
</g>
<defs>
<clipPath id="clip0_1_280">
<rect width="17" height="18" fill="white" transform="translate(0.5 0.48999)"/>
</clipPath>
<clipPath id="clip1_1_280">
<rect width="17" height="18" fill="white" transform="translate(0.5 0.48999)"/>
</clipPath>
<clipPath id="clip2_1_280">
<rect width="17" height="18" fill="white" transform="translate(0.5 0.48999)"/>
</clipPath>
</defs>
</svg>
