<svg width="18" height="17" viewBox="0 0 18 17" fill="none" xmlns="http://www.w3.org/2000/svg">
<g clip-path="url(#clip0_1_264)">
<g clip-path="url(#clip1_1_264)">
<g clip-path="url(#clip2_1_264)">
<path fill-rule="evenodd" clip-rule="evenodd" d="M11.86 1.18351C11.531 1.16051 11.199 1.23871 10.904 1.40251C10.901 1.40391 10.899 1.40541 10.896 1.40691L5.43497 4.55941H2.20499C1.27799 4.55941 0.510986 5.32521 0.510986 6.25181V14.137C0.510986 15.0636 1.27799 15.8305 2.20499 15.8305H4.45798C4.60798 15.8305 4.75099 15.771 4.85699 15.6653C4.96299 15.5595 5.02197 15.4161 5.02197 15.2665C5.02197 15.1169 4.96299 14.9735 4.85699 14.8678C4.75099 14.762 4.60798 14.7026 4.45798 14.7026H2.20499C1.88299 14.7026 1.63797 14.4589 1.63797 14.137V6.25181C1.63797 5.92991 1.88299 5.68621 2.20499 5.68621H15.725C16.047 5.68621 16.29 5.92991 16.29 6.25181V14.137C16.29 14.4589 16.047 14.7026 15.725 14.7026H6.71298C6.56298 14.7026 6.42 14.762 6.314 14.8678C6.208 14.9735 6.14899 15.1169 6.14899 15.2665C6.14899 15.4161 6.208 15.5595 6.314 15.6653C6.42 15.771 6.56298 15.8305 6.71298 15.8305H15.725C16.651 15.8305 17.413 15.0636 17.413 14.137V6.25181C17.413 5.32521 16.651 4.55941 15.725 4.55941H14.668L13.205 2.02531C12.915 1.52371 12.401 1.22131 11.86 1.18351ZM11.781 2.30811C11.961 2.32091 12.129 2.41461 12.23 2.58871L13.368 4.55941H7.68799L11.452 2.38621C11.567 2.32261 11.677 2.30091 11.781 2.30811ZM3.32999 10.1944C3.01899 10.1944 2.76697 10.4466 2.76697 10.7578C2.76697 11.0689 3.01899 11.3212 3.32999 11.3212C3.64099 11.3212 3.89398 11.0689 3.89398 10.7578C3.89398 10.4466 3.64099 10.1944 3.32999 10.1944ZM5.58398 10.1944C5.27298 10.1944 5.01999 10.4466 5.01999 10.7578C5.01999 11.0689 5.27298 11.3212 5.58398 11.3212C5.89498 11.3212 6.14697 11.0689 6.14697 10.7578C6.14697 10.4466 5.89498 10.1944 5.58398 10.1944ZM12.343 10.1944C12.195 10.195 12.052 10.2543 11.947 10.3594C11.842 10.4645 11.783 10.6069 11.782 10.7556V13.0102C11.782 13.1596 11.84 13.3032 11.946 13.4092C12.051 13.5153 12.194 13.5752 12.343 13.5758H14.597C14.671 13.5762 14.745 13.5619 14.814 13.5336C14.883 13.5054 14.945 13.4638 14.998 13.4112C15.051 13.3586 15.093 13.2961 15.121 13.2273C15.149 13.1584 15.164 13.0847 15.164 13.0102V10.7556C15.163 10.6815 15.148 10.6082 15.12 10.5399C15.091 10.4716 15.049 10.4096 14.997 10.3575C14.944 10.3053 14.882 10.2641 14.813 10.2361C14.744 10.2081 14.671 10.194 14.597 10.1944H12.343ZM12.909 11.3223H14.036V12.449H12.909V11.3223ZM3.27298 12.449C3.12598 12.4599 2.98899 12.528 2.89099 12.6386C2.79399 12.7492 2.74398 12.8937 2.75098 13.0409C2.75898 13.1882 2.82398 13.3267 2.93198 13.4266C3.04098 13.5266 3.18399 13.5802 3.33099 13.5758H8.96198C9.03698 13.5775 9.11197 13.5642 9.18097 13.5366C9.25097 13.5091 9.31499 13.4678 9.36899 13.4153C9.42199 13.3629 9.46499 13.3002 9.49399 13.231C9.52299 13.1618 9.53799 13.0875 9.53799 13.0124C9.53799 12.9374 9.52299 12.863 9.49399 12.7938C9.46499 12.7247 9.42199 12.662 9.36899 12.6095C9.31499 12.557 9.25097 12.5158 9.18097 12.4882C9.11197 12.4607 9.03698 12.4473 8.96198 12.449H3.33099C3.31199 12.448 3.29198 12.448 3.27298 12.449Z" fill="#DA3738"/>
</g>
</g>
</g>
<defs>
<clipPath id="clip0_1_264">
<rect width="17" height="16" fill="white" transform="translate(0.5 0.48999)"/>
</clipPath>
<clipPath id="clip1_1_264">
<rect width="17" height="16" fill="white" transform="translate(0.5 0.48999)"/>
</clipPath>
<clipPath id="clip2_1_264">
<rect width="17" height="16" fill="white" transform="translate(0.5 0.48999)"/>
</clipPath>
</defs>
</svg>
