<svg width="19" height="18" viewBox="0 0 19 18" fill="none" xmlns="http://www.w3.org/2000/svg">
<g clip-path="url(#clip0_1_293)">
<g clip-path="url(#clip1_1_293)">
<g clip-path="url(#clip2_1_293)">
<mask id="mask0_1_293" style="mask-type:luminance" maskUnits="userSpaceOnUse" x="0" y="0" width="18" height="18">
<path d="M17.95 0.48999H0.949951V17.49H17.95V0.48999Z" fill="white"/>
</mask>
<g mask="url(#mask0_1_293)">
<path d="M1.65796 14.6566V10.4066H5.90796" stroke="#DA3738" stroke-width="2" stroke-linecap="round" stroke-linejoin="round"/>
<path d="M17.2419 3.32336V7.57336H12.9919" stroke="#DA3738" stroke-width="2" stroke-linecap="round" stroke-linejoin="round"/>
<path d="M3.43594 6.86502C3.79594 5.84983 4.40594 4.94218 5.21094 4.22678C6.01594 3.51137 6.98894 3.01152 8.03894 2.77387C9.08994 2.53622 10.1829 2.56851 11.2169 2.86774C12.2519 3.16696 13.194 3.72336 13.955 4.48502L17.2419 7.57336M1.65796 10.4067L4.94495 13.495C5.70595 14.2567 6.64795 14.8131 7.68295 15.1123C8.71695 15.4115 9.81096 15.4438 10.861 15.2062C11.911 14.9685 12.884 14.4687 13.689 13.7533C14.494 13.0379 15.104 12.1302 15.464 11.115" stroke="#DA3738" stroke-width="2" stroke-linecap="round" stroke-linejoin="round"/>
</g>
</g>
</g>
</g>
<defs>
<clipPath id="clip0_1_293">
<rect width="18" height="17" fill="white" transform="translate(0.5 0.48999)"/>
</clipPath>
<clipPath id="clip1_1_293">
<rect width="18" height="17" fill="white" transform="translate(0.5 0.48999)"/>
</clipPath>
<clipPath id="clip2_1_293">
<rect width="18" height="17" fill="white" transform="translate(0.5 0.48999)"/>
</clipPath>
</defs>
</svg>
