<svg width="15" height="14" viewBox="0 0 15 14" fill="none" xmlns="http://www.w3.org/2000/svg">
<path d="M5.55195 6.02095C6.25792 7.25971 7.23028 8.23207 8.46904 8.93804L9.12838 8.01895C9.23494 7.87243 9.38146 7.77919 9.56794 7.73923C9.75442 7.69927 9.92758 7.71925 10.0874 7.79917C11.153 8.38525 12.2852 8.72492 13.484 8.81816C13.6705 8.83148 13.8303 8.90807 13.9635 9.04793C14.0967 9.18779 14.1633 9.35762 14.1633 9.55742V12.8541C14.1633 13.0539 14.1001 13.2237 13.9735 13.3636C13.847 13.5035 13.6905 13.5801 13.504 13.5934C13.1177 13.6333 12.7181 13.6533 12.3052 13.6533C10.7601 13.6533 9.2749 13.3536 7.84966 12.7542C6.4777 12.1681 5.26224 11.3456 4.2033 10.2867C3.14436 9.22775 2.32185 8.01229 1.73577 6.64033C1.13637 5.21509 0.83667 3.72991 0.83667 2.18479C0.83667 1.77187 0.85665 1.37227 0.89661 0.985987C0.90993 0.799507 0.98985 0.642997 1.13637 0.516457C1.28289 0.389916 1.44939 0.326646 1.63587 0.326646H4.93257C5.13237 0.326646 5.3022 0.393246 5.44206 0.526447C5.58192 0.659647 5.65851 0.819487 5.67183 1.00597C5.76508 2.20477 6.10474 3.33697 6.69082 4.40257C6.77074 4.56241 6.79072 4.73557 6.75076 4.92205C6.7108 5.10853 6.61756 5.25505 6.47104 5.36161L5.55195 6.02095ZM3.67383 5.52145L5.09241 4.52245C4.69281 3.65665 4.41975 2.75089 4.27323 1.80517H2.31519V2.18479C2.31519 3.53011 2.57493 4.82215 3.09441 6.06091C3.60057 7.25971 4.31652 8.32198 5.24226 9.24773C6.16801 10.1735 7.23028 10.8894 8.42908 11.3956C9.66784 11.9151 10.9599 12.1748 12.3052 12.1748H12.6848V10.2168C11.7391 10.0702 10.8333 9.79718 9.96754 9.39758L8.96854 10.8162C8.55562 10.6563 8.16268 10.4698 7.78972 10.2567L7.74976 10.2367C7.01716 9.82382 6.35449 9.32099 5.76175 8.72825C5.169 8.1355 4.66617 7.47283 4.25325 6.74023L4.23327 6.70027C4.02015 6.32731 3.83367 5.93437 3.67383 5.52145Z" fill="black"/>
</svg>
