<svg width="57" height="57" viewBox="0 0 57 57" fill="none" xmlns="http://www.w3.org/2000/svg">
<rect x="0.47998" y="0.660034" width="56" height="56" rx="28" fill="#F8F8F8"/>
<path d="M8.46001 27.9647C8.46001 25.9188 8.9715 24.0326 9.99447 22.3064C11.0174 20.5801 12.4001 19.2055 14.1423 18.1825C15.8846 17.1595 17.7787 16.648 19.8246 16.648H48.5V27.9647C48.5 30.0426 47.9885 31.9447 46.9655 33.671C45.9425 35.3973 44.5599 36.7719 42.8176 37.7949C41.0754 38.8179 39.1813 39.3293 37.1353 39.3293H8.46001V27.9647ZM37.1353 36.9797C38.7657 36.9797 40.2682 36.5721 41.6428 35.7569C43.0174 34.9417 44.1124 33.8468 44.9275 32.4722C45.7427 31.0976 46.1503 29.5951 46.1503 27.9647V18.9977H19.8246C18.1943 18.9977 16.6918 19.4053 15.3171 20.2205C13.9425 21.0356 12.8476 22.1305 12.0324 23.5052C11.2172 24.8798 10.8097 26.3663 10.8097 27.9647V36.9797H37.1353ZM17.6668 29.1156V30.8418H22.51V33.4792H14.6458V22.4502H22.4141V25.0876H17.6668V26.67H21.6948V29.1156H17.6668ZM30.3741 29.5471C30.2782 29.8029 30.1583 30.0107 30.0145 30.1705C29.8706 30.3303 29.7187 30.4662 29.5589 30.5781C29.3991 30.69 29.2232 30.7699 29.0314 30.8179C28.8396 30.8658 28.6638 30.8898 28.504 30.8898C28.1203 30.8898 27.7927 30.8099 27.5209 30.65C27.2492 30.4902 27.0174 30.2744 26.8256 30.0027C26.6338 29.7309 26.49 29.4193 26.3941 29.0676C26.2982 28.716 26.2502 28.3563 26.2502 27.9887C26.2502 27.6211 26.2902 27.2694 26.3701 26.9337C26.45 26.5981 26.5859 26.2864 26.7777 25.9987C26.9695 25.711 27.2013 25.4872 27.473 25.3273C27.7447 25.1675 28.0724 25.0876 28.456 25.0876C28.6159 25.0876 28.7917 25.1036 28.9835 25.1355C29.1753 25.1675 29.3591 25.2394 29.5349 25.3513C29.7108 25.4632 29.8786 25.6071 30.0384 25.7829C30.1983 25.9587 30.3261 26.1745 30.422 26.4302L32.7237 24.7999C32.3721 24.0646 31.8286 23.4812 31.0934 23.0496C30.3581 22.6181 29.495 22.4023 28.504 22.4023C27.6728 22.4023 26.9295 22.5621 26.2742 22.8818C25.6188 23.2015 25.0594 23.6171 24.5959 24.1285C24.1323 24.64 23.7807 25.2235 23.5409 25.8788C23.3012 26.5341 23.1813 27.2055 23.1813 27.8928C23.1813 28.5801 23.3092 29.2674 23.5649 29.9547C23.8206 30.642 24.1803 31.2574 24.6438 31.8009C25.1074 32.3443 25.6588 32.7759 26.2982 33.0956C26.9375 33.4153 27.6408 33.5751 28.4081 33.5751C28.8556 33.5751 29.3032 33.5192 29.7507 33.4073C30.1983 33.2954 30.6298 33.1355 31.0454 32.9277C31.461 32.72 31.8286 32.4562 32.1483 32.1365C32.468 31.8169 32.6918 31.4492 32.8196 31.0336L30.3741 29.5471ZM42.4101 24.1285C42.8896 24.672 43.2492 25.2794 43.489 25.9507C43.7287 26.6221 43.8486 27.3174 43.8486 28.0366C43.8486 28.7559 43.7207 29.4512 43.465 30.1226C43.2093 30.7939 42.8496 31.3853 42.3861 31.8968C41.9225 32.4083 41.3631 32.8159 40.7078 33.1196C40.0524 33.4233 39.3331 33.5751 38.5499 33.5751C37.7667 33.5751 37.0474 33.4153 36.3921 33.0956C35.7367 32.7759 35.1773 32.3523 34.7138 31.8249C34.2502 31.2974 33.8906 30.698 33.6348 30.0266C33.3791 29.3553 33.2512 28.66 33.2512 27.9407C33.2512 27.2215 33.3871 26.5261 33.6588 25.8548C33.9305 25.1835 34.3062 24.5921 34.7857 24.0806C35.2652 23.5691 35.8246 23.1615 36.464 22.8578C37.1034 22.5541 37.8147 22.4023 38.5979 22.4023C39.3811 22.4023 40.1004 22.5621 40.7557 22.8818C41.4111 23.2015 41.9625 23.6171 42.4101 24.1285ZM40.2522 29.9787C40.444 29.691 40.5799 29.3713 40.6598 29.0197C40.7397 28.668 40.7797 28.3084 40.7797 27.9407C40.7797 27.5731 40.7317 27.2135 40.6358 26.8618C40.5399 26.5102 40.4041 26.2065 40.2282 25.9507C40.0524 25.695 39.8206 25.4872 39.5329 25.3273C39.2452 25.1675 38.9175 25.0876 38.5499 25.0876C38.1823 25.0876 37.8546 25.1675 37.5669 25.3273C37.2792 25.4872 37.0474 25.703 36.8716 25.9747C36.6958 26.2464 36.5679 26.5581 36.488 26.9098C36.4081 27.2614 36.3681 27.6211 36.3681 27.9887C36.3681 28.3563 36.4081 28.716 36.488 29.0676C36.5679 29.4193 36.7038 29.7309 36.8956 30.0027C37.0874 30.2744 37.3191 30.4902 37.5909 30.65C37.8626 30.8099 38.1903 30.8898 38.5739 30.8898C38.9575 30.8898 39.2932 30.8099 39.5809 30.65C39.8686 30.4902 40.0924 30.2664 40.2522 29.9787Z" fill="#DA3738"/>
</svg>
