<svg width="13" height="16" viewBox="0 0 13 16" fill="none" xmlns="http://www.w3.org/2000/svg">
<path d="M6.76971 13.5445L10.1064 10.1279C10.7191 9.51516 11.132 8.79255 11.3451 7.96004C11.5583 7.12754 11.5583 6.29837 11.3451 5.47253C11.132 4.64669 10.7224 3.92408 10.1164 3.3047C9.5103 2.68532 8.80101 2.26574 7.98849 2.04596C7.17597 1.82618 6.36012 1.82618 5.54094 2.04596C4.72176 2.26574 4.00914 2.68532 3.40308 3.3047C2.79701 3.92408 2.38742 4.64669 2.1743 5.47253C1.96118 6.29837 1.96118 7.12754 2.1743 7.96004C2.38742 8.79255 2.80035 9.51516 3.41307 10.1279L6.76971 13.5445ZM6.76971 15.5025L2.45402 11.1069C1.66814 10.3077 1.13534 9.36864 0.855623 8.28971C0.589223 7.23743 0.589223 6.18515 0.855623 5.13287C1.13534 4.05395 1.66481 3.11489 2.44403 2.31569C3.22326 1.51649 4.14567 0.977027 5.21127 0.697307C6.25023 0.430907 7.28253 0.430907 8.30817 0.697307C9.37377 0.977027 10.2962 1.51649 11.0754 2.31569C11.8546 3.11489 12.3841 4.05395 12.6638 5.13287C12.9302 6.18515 12.9302 7.23743 12.6638 8.28971C12.3841 9.36864 11.8513 10.3077 11.0654 11.1069L6.76971 15.5025ZM6.76971 8.08991C7.14267 8.08991 7.45902 7.95671 7.71876 7.69031C7.9785 7.42391 8.10837 7.09757 8.10837 6.71129C8.10837 6.32501 7.9785 5.99867 7.71876 5.73227C7.45902 5.46587 7.13934 5.33267 6.75972 5.33267C6.3801 5.33267 6.06042 5.46587 5.80068 5.73227C5.54094 5.99867 5.41107 6.32501 5.41107 6.71129C5.41107 7.09757 5.54094 7.42391 5.80068 7.69031C6.06042 7.95671 6.38343 8.08991 6.76971 8.08991ZM6.76971 9.46854C6.27687 9.46854 5.82066 9.34533 5.40108 9.09891C4.9815 8.85249 4.65183 8.51949 4.41207 8.0999C4.17231 7.68032 4.05243 7.22078 4.05243 6.72128C4.05243 6.22178 4.17231 5.75891 4.41207 5.33267C4.65183 4.90643 4.9815 4.5701 5.40108 4.32368C5.82066 4.07726 6.27354 3.95405 6.75972 3.95405C7.2459 3.95405 7.69878 4.07726 8.11836 4.32368C8.53794 4.5701 8.86761 4.90643 9.10737 5.33267C9.34713 5.75891 9.46701 6.22178 9.46701 6.72128C9.46701 7.22078 9.34713 7.68032 9.10737 8.0999C8.86761 8.51949 8.53794 8.85249 8.11836 9.09891C7.69878 9.34533 7.24923 9.46854 6.76971 9.46854Z" fill="black"/>
</svg>
