<svg width="25" height="25" viewBox="0 0 25 25" fill="none" xmlns="http://www.w3.org/2000/svg">
<path d="M0.51001 12.5183C0.51001 10.9039 0.821698 9.35345 1.44507 7.86694C2.05247 6.42838 2.91161 5.15365 4.0225 4.04276C5.13339 2.93187 6.40811 2.07273 7.84667 1.46534C9.33319 0.841961 10.8876 0.530273 12.51 0.530273C14.1324 0.530273 15.6868 0.841961 17.1733 1.46534C18.6119 2.07273 19.8866 2.93187 20.9975 4.04276C22.1084 5.15365 22.9676 6.42838 23.5749 7.86694C24.1983 9.35345 24.51 10.9079 24.51 12.5303C24.51 14.1527 24.1983 15.7071 23.5749 17.1936C22.9676 18.6322 22.1084 19.9069 20.9975 21.0178C19.8866 22.1287 18.6119 22.9878 17.1733 23.5952C15.6868 24.2186 14.1324 24.5303 12.51 24.5303C10.8876 24.5303 9.33319 24.2186 7.84667 23.5952C6.40811 22.9878 5.13339 22.1287 4.0225 21.0178C2.91161 19.9069 2.05247 18.6322 1.44507 17.1936C0.821698 15.7071 0.51001 14.1487 0.51001 12.5183ZM16.7178 8.46634C16.7338 7.68312 16.554 6.96384 16.1783 6.3085C15.8027 5.65315 15.2912 5.13367 14.6439 4.75005C13.9965 4.36644 13.2892 4.17463 12.522 4.17463C11.7548 4.17463 11.0475 4.36244 10.4001 4.73807C9.75277 5.11369 9.24128 5.62518 8.86565 6.27253C8.49003 6.91988 8.29822 7.62718 8.29023 8.39441C8.28224 9.16164 8.46605 9.86893 8.84168 10.5163C9.2173 11.1636 9.72879 11.6791 10.3761 12.0627C11.0235 12.4464 11.7268 12.6382 12.486 12.6382C13.2453 12.6382 13.9486 12.4504 14.5959 12.0747C15.2433 11.6991 15.7588 11.1916 16.1424 10.5523C16.526 9.91289 16.7178 9.21759 16.7178 8.46634ZM15.4231 15.4673C16.1584 15.1956 16.7737 14.804 17.2693 14.2925C17.6049 13.9409 17.6209 13.5333 17.3172 13.0697C17.2053 12.8779 17.0495 12.7421 16.8497 12.6621C16.6499 12.5822 16.4461 12.5702 16.2383 12.6262C16.0305 12.6821 15.8227 12.79 15.6149 12.9499C14.6878 13.5732 13.6409 13.8769 12.474 13.8609C11.3072 13.845 10.2603 13.5173 9.33319 12.8779C9.2213 12.814 9.12539 12.758 9.04547 12.7101C8.77375 12.5982 8.522 12.5662 8.29023 12.6142C8.05846 12.6621 7.87065 12.798 7.72679 13.0218C7.37514 13.5173 7.4231 13.9808 7.87065 14.4124C7.9186 14.4603 8.01451 14.5403 8.15836 14.6522L8.23029 14.7001C8.69383 15.0677 9.22929 15.3554 9.83668 15.5632C10.3642 15.7391 10.9795 15.8669 11.6828 15.9469L8.61391 19.0158C8.40611 19.2396 8.29423 19.4673 8.27824 19.6991C8.26226 19.9309 8.31421 20.1427 8.43409 20.3345C8.55397 20.5263 8.7178 20.6701 8.92559 20.766C9.34118 20.9738 9.7168 20.9099 10.0525 20.5742C10.9156 19.7111 11.6509 18.9678 12.2583 18.3445C12.3701 18.2486 12.4581 18.1966 12.522 18.1886C12.5859 18.1806 12.6659 18.2326 12.7618 18.3445C13.0814 18.6641 13.569 19.1517 14.2243 19.807L14.9436 20.5263C15.1514 20.7341 15.3672 20.846 15.5909 20.8619C15.8147 20.8779 16.0265 20.826 16.2263 20.7061C16.4261 20.5862 16.5739 20.4224 16.6699 20.2146C16.7658 20.0068 16.7977 19.807 16.7658 19.6152C16.7338 19.4234 16.6299 19.2476 16.4541 19.0877L13.5769 16.1866L13.3612 15.9469C14.2083 15.835 14.8956 15.6751 15.4231 15.4673ZM14.5839 8.39441C14.5839 8.96983 14.3841 9.46134 13.9845 9.86893C13.5849 10.2765 13.0974 10.4803 12.522 10.4803C11.9466 10.4803 11.4551 10.2805 11.0475 9.88092C10.6399 9.48132 10.4361 8.99381 10.4361 8.41839C10.4361 7.84296 10.6359 7.35145 11.0355 6.94386C11.4351 6.53627 11.9226 6.33247 12.498 6.33247C13.0734 6.33247 13.565 6.53227 13.9725 6.93187C14.3801 7.33147 14.5839 7.81898 14.5839 8.39441Z" fill="white"/>
</svg>
