<svg width="25" height="25" viewBox="0 0 25 25" fill="none" xmlns="http://www.w3.org/2000/svg">
<path d="M12.4021 0.530273C10.3082 0.530273 8.8217 0.554249 7.94258 0.602201C6.53598 0.666137 5.40112 0.809993 4.53798 1.03377C3.56296 1.28951 2.78773 1.68911 2.21231 2.23257C1.66885 2.79201 1.26925 3.58322 1.01351 4.6062C0.78973 5.48532 0.645874 6.63617 0.581938 8.05874C0.533986 8.92188 0.51001 10.3764 0.51001 12.4224C2.63588 12.3425 4.11441 12.2625 4.94557 12.1826C6.20831 12.0707 7.2233 11.8789 7.99053 11.6072C8.8217 11.3035 9.56495 10.848 10.2203 10.2406C10.8277 9.58522 11.2832 8.84196 11.5869 8.01079C11.8587 7.24356 12.0505 6.22857 12.1624 4.96584C12.2423 4.13467 12.3222 2.65615 12.4021 0.530273ZM2.21231 22.828C1.66885 22.2685 1.26925 21.4773 1.01351 20.4543C0.78973 19.5752 0.645874 18.4244 0.581938 17.0018C0.533986 16.1387 0.51001 14.6841 0.51001 12.6382C2.63588 12.7181 4.11441 12.798 4.94557 12.8779C6.20831 12.9898 7.2233 13.1816 7.99053 13.4534C8.8217 13.757 9.55297 14.2166 10.1843 14.832C10.8157 15.4474 11.2832 16.1706 11.5869 17.0018C11.8587 17.785 12.0505 18.808 12.1624 20.0707C12.2423 20.9019 12.3222 22.3884 12.4021 24.5303C10.3082 24.5303 8.8217 24.5063 7.94258 24.4583C6.53598 24.3944 5.40112 24.2506 4.53798 24.0268C3.56296 23.771 2.78773 23.3714 2.21231 22.828ZM12.6179 24.5303C12.6978 22.4044 12.7777 20.9259 12.8577 20.0947C12.9696 18.832 13.1614 17.817 13.4331 17.0498C13.7368 16.2186 14.1963 15.4873 14.8117 14.8559C15.4271 14.2246 16.1504 13.757 16.9815 13.4534C17.7648 13.1816 18.7877 12.9898 20.0505 12.8779C20.8816 12.798 22.3682 12.7181 24.51 12.6382C24.51 14.6841 24.486 16.1387 24.4381 17.0018C24.3741 18.4244 24.2303 19.5672 24.0065 20.4304C23.7508 21.4214 23.3512 22.1886 22.8077 22.7321C22.2323 23.3075 21.4571 23.7311 20.482 24.0028C19.6189 24.2426 18.484 24.3944 17.0774 24.4583C16.1983 24.5063 14.7118 24.5303 12.6179 24.5303ZM12.6179 0.530273C12.6978 2.65615 12.7777 4.13467 12.8577 4.96584C12.9696 6.22857 13.1614 7.24356 13.4331 8.01079C13.7368 8.84196 14.1963 9.57323 14.8117 10.2046C15.4271 10.836 16.1504 11.3035 16.9815 11.6072C17.7648 11.8789 18.7877 12.0707 20.0505 12.1826C20.8816 12.2625 22.3682 12.3425 24.51 12.4224C24.51 10.3764 24.486 8.92188 24.4381 8.05874C24.3741 6.63617 24.2303 5.49331 24.0065 4.63017C23.7508 3.63916 23.3512 2.87193 22.8077 2.32847C22.2323 1.75305 21.4571 1.32947 20.482 1.05775C19.6189 0.817985 18.484 0.666137 17.0774 0.602201C16.1983 0.554249 14.7118 0.530273 12.6179 0.530273Z" fill="white"/>
</svg>
