<svg width="57" height="57" viewBox="0 0 57 57" fill="none" xmlns="http://www.w3.org/2000/svg">
<rect x="0.469971" y="0.660034" width="56" height="56" rx="28" fill="#F8F8F8"/>
<path d="M28.494 44.6521C25.5849 44.6521 22.8836 43.9328 20.3901 42.4943C17.9925 41.0557 16.0744 39.1376 14.6358 36.74C13.1972 34.2465 12.478 31.5532 12.478 28.6601C12.478 25.767 13.1972 23.0737 14.6358 20.5802C16.0744 18.1826 17.9925 16.2645 20.3901 14.8259C22.8836 13.3874 25.5769 12.6681 28.47 12.6681C31.3631 12.6681 34.0564 13.3874 36.5499 14.8259C38.9475 16.2645 40.8656 18.1826 42.3041 20.5802C43.7427 23.0737 44.462 25.767 44.462 28.6601C44.462 31.5532 43.7427 34.2465 42.3041 36.74C40.8656 39.1376 38.9475 41.0557 36.5499 42.4943C34.0564 43.9328 31.3711 44.6521 28.494 44.6521ZM28.494 41.4393C30.7956 41.4393 32.9295 40.8719 34.8955 39.737C36.8616 38.6021 38.412 37.0517 39.5469 35.0857C40.6818 33.1196 41.2492 30.9778 41.2492 28.6601C41.2492 26.3424 40.6818 24.2006 39.5469 22.2345C38.412 20.2685 36.8616 18.718 34.8955 17.5832C32.9295 16.4483 30.7877 15.8809 28.47 15.8809C26.1523 15.8809 24.0104 16.4483 22.0444 17.5832C20.0784 18.718 18.5279 20.2685 17.3931 22.2345C16.2582 24.2006 15.6908 26.3424 15.6908 28.6601C15.6908 30.9778 16.2582 33.1196 17.3931 35.0857C18.5279 37.0517 20.0784 38.6021 22.0444 39.737C24.0104 40.8719 26.1603 41.4393 28.494 41.4393ZM26.8636 20.6761H30.0764V23.8409H26.8636V20.6761ZM26.8636 27.0537H30.0764V36.6441H26.8636V27.0537Z" fill="#DA3738"/>
</svg>
