<svg width="25" height="25" viewBox="0 0 25 25" fill="none" xmlns="http://www.w3.org/2000/svg">
<path d="M12.522 0.530273C14.1364 0.530273 15.6868 0.841961 17.1733 1.46534C18.6119 2.07273 19.8866 2.93187 20.9975 4.04276C22.1084 5.15365 22.9676 6.42838 23.5749 7.86694C24.1983 9.35345 24.51 10.9079 24.51 12.5303C24.51 14.1527 24.1983 15.7071 23.5749 17.1936C22.9676 18.6322 22.1084 19.9069 20.9975 21.0178C19.8866 22.1287 18.6119 22.9878 17.1733 23.5952C15.6868 24.2186 14.1324 24.5303 12.51 24.5303C10.8876 24.5303 9.33319 24.2186 7.84667 23.5952C6.40811 22.9878 5.13339 22.1287 4.0225 21.0178C2.91161 19.9069 2.05247 18.6322 1.44507 17.1936C0.821698 15.7071 0.51001 14.1527 0.51001 12.5303C0.51001 10.9079 0.821698 9.35345 1.44507 7.86694C2.05247 6.42838 2.91161 5.15365 4.0225 4.04276C5.13339 2.93187 6.40811 2.07273 7.84667 1.46534C9.33319 0.841961 10.8916 0.530273 12.522 0.530273ZM18.54 8.13067C18.556 7.87493 18.484 7.68712 18.3242 7.56724C18.1644 7.44736 17.9646 7.43537 17.7248 7.53127L7.05546 11.6551C6.89562 11.7191 6.73578 11.823 6.57594 11.9668C6.51201 12.0308 6.48404 12.1027 6.49203 12.1826C6.50002 12.2625 6.54797 12.3345 6.63588 12.3984C6.7238 12.4623 6.83968 12.5103 6.98354 12.5423C7.86266 12.83 8.67784 13.0857 9.42909 13.3095C9.52499 13.3415 9.58893 13.4054 9.6209 13.5013L10.6758 16.7381C10.7238 16.8819 10.8197 16.9618 10.9636 16.9778C11.1713 16.9778 11.3632 16.8979 11.539 16.7381L12.9056 15.3954L15.5909 17.3854C15.8467 17.5772 16.0744 17.6332 16.2742 17.5533C16.474 17.4733 16.6059 17.2815 16.6699 16.9778L18.3961 8.89791C18.476 8.56224 18.524 8.3065 18.54 8.13067ZM16.1664 9.32947C16.2143 9.31349 16.2702 9.31349 16.3342 9.32947H16.4301L16.3821 9.4014C16.3502 9.46534 16.3262 9.51329 16.3102 9.54526L11.3472 14.0288C11.2513 14.1087 11.1953 14.2126 11.1793 14.3405L11.0595 15.6831L11.0115 16.1866H10.9875L10.0525 13.3335C10.0205 13.2695 10.0125 13.2216 10.0285 13.1896C10.0445 13.1576 10.0764 13.1257 10.1244 13.0937L15.8786 9.44935C16.0065 9.38542 16.1024 9.34546 16.1664 9.32947Z" fill="white"/>
</svg>
