<svg width="25" height="25" viewBox="0 0 25 25" fill="none" xmlns="http://www.w3.org/2000/svg">
<path d="M12.522 0.530273C10.8916 0.530273 9.33319 0.841961 7.84667 1.46534C6.40811 2.07273 5.13339 2.93187 4.0225 4.04276C2.91161 5.15365 2.05247 6.42838 1.44507 7.86694C0.821698 9.35345 0.51001 10.9079 0.51001 12.5303C0.51001 14.1527 0.821698 15.7071 1.44507 17.1936C2.05247 18.6322 2.91161 19.9069 4.0225 21.0178C5.13339 22.1287 6.40811 22.9878 7.84667 23.5952C9.33319 24.2186 10.8876 24.5303 12.51 24.5303C14.1324 24.5303 15.6868 24.2186 17.1733 23.5952C18.6119 22.9878 19.8866 22.1287 20.9975 21.0178C22.1084 19.9069 22.9676 18.6322 23.5749 17.1936C24.1983 15.7071 24.51 14.1527 24.51 12.5303C24.51 10.9079 24.1983 9.35345 23.5749 7.86694C22.9676 6.42838 22.1084 5.15365 20.9975 4.04276C19.8866 2.93187 18.6119 2.07273 17.1733 1.46534C15.6868 0.841961 14.1364 0.530273 12.522 0.530273ZM18.5879 13.837C18.6998 13.9329 18.8517 14.0767 19.0435 14.2685C19.6029 14.796 20.0105 15.2116 20.2663 15.5153C20.522 15.819 20.7098 16.0867 20.8297 16.3185C20.9496 16.5503 20.9696 16.766 20.8896 16.9658C20.8097 17.1656 20.6659 17.2735 20.4581 17.2895H18.0125C17.4371 17.3375 16.9176 17.1297 16.4541 16.6661C16.2942 16.5063 16.0704 16.2665 15.7827 15.9469L15.471 15.5872C15.3112 15.4114 15.1594 15.2835 15.0155 15.2036C14.8557 15.0917 14.7038 15.0518 14.56 15.0837C14.4161 15.1157 14.2962 15.2196 14.2003 15.3954C14.0565 15.6671 13.9686 16.0508 13.9366 16.5463C13.9206 16.834 13.8607 17.0258 13.7568 17.1217C13.6529 17.2176 13.4491 17.2735 13.1454 17.2895C11.8027 17.3535 10.6359 17.1057 9.64488 16.5463C8.79772 16.0667 8.00651 15.3235 7.27125 14.3165C6.67984 13.5173 6.11241 12.6222 5.56895 11.6312C5.10541 10.8 4.63389 9.84895 4.15437 8.77803C3.96256 8.33047 4.10641 8.0987 4.58593 8.08272C5.3212 8.06674 6.1204 8.06674 6.98354 8.08272C7.30322 8.08272 7.52699 8.25055 7.65486 8.58622C8.1184 9.7051 8.66186 10.7121 9.28523 11.6072C9.52499 11.9429 9.73279 12.1666 9.90861 12.2785C10.1963 12.4863 10.4121 12.4304 10.556 12.1107C10.6199 11.9349 10.6599 11.7191 10.6758 11.4633C10.7558 10.6322 10.7478 9.88891 10.6519 9.23357C10.5719 8.75405 10.3082 8.47433 9.86066 8.39441C9.74877 8.37843 9.68883 8.35045 9.68084 8.31049C9.67285 8.27053 9.70082 8.21059 9.76476 8.13067C9.87664 8.0028 9.98853 7.9069 10.1004 7.84296C10.2123 7.77902 10.3562 7.74706 10.532 7.74706H13.3132C13.521 7.79501 13.6609 7.87093 13.7328 7.97483C13.8047 8.07872 13.8567 8.25055 13.8886 8.49031L13.9126 11.5592C13.8966 11.6871 13.9206 11.831 13.9845 11.9908C14.0645 12.1826 14.1684 12.3025 14.2962 12.3505C14.3921 12.3824 14.488 12.3744 14.5839 12.3265C14.6479 12.2785 14.7278 12.2066 14.8237 12.1107L14.8477 12.0867C15.3751 11.5113 15.8946 10.7121 16.4061 9.68911C16.55 9.38542 16.7178 8.99381 16.9096 8.51429C17.0375 8.21059 17.2533 8.06674 17.557 8.08272H20.2183C20.3302 8.08272 20.4101 8.08272 20.4581 8.08272C20.6818 8.13067 20.8297 8.2066 20.9016 8.31049C20.9735 8.41439 20.9696 8.57823 20.8896 8.802C20.7937 9.1057 20.6499 9.41739 20.4581 9.73707C20.3462 9.92887 20.1544 10.2086 19.8826 10.5762L19.1873 11.5113C18.8677 11.9429 18.6279 12.2705 18.4681 12.4943C18.2603 12.766 18.1684 12.9938 18.1923 13.1776C18.2163 13.3614 18.3482 13.5812 18.5879 13.837Z" fill="white"/>
</svg>
